<?xml version="1.0" encoding="utf-8"?>
<svg version="1.1" xmlns:xlink="http://www.w3.org/1999/xlink" width="33px" height="33px" xmlns="http://www.w3.org/2000/svg">
  <g transform="matrix(1 0 0 1 -12 -6 )">
    <path d="M 12 6  L 45 6  L 45 39  L 12 39  L 12 6  " fill-rule="nonzero" fill="#cccccc" stroke="none" />
    <path d="M 14 8  L 43 8  L 43 37  L 14 37  L 14 8  " fill-rule="nonzero" fill="#ffffff" stroke="none" />
    <path d="M 31.635 15.9  C 30.249 15.9  29.16 14.811  29.16 13.425  C 29.16 12.039  30.249 10.95  31.635 10.95  C 33.021 10.95  34.11 12.039  34.11 13.425  C 34.11 14.811  33.021 15.9  31.635 15.9  " fill-rule="nonzero" fill="#cccccc" stroke="none" />
    <path d="M 15 36  L 15 21.15  L 21.75 14.4  L 31.2 19.8  L 36.6 18.45  L 42 19.8  L 42 36  L 15 36  " fill-rule="nonzero" fill="#169bd5" stroke="none" />
  </g>
</svg>