<?xml version="1.0" encoding="utf-8"?>
<svg version="1.1" xmlns:xlink="http://www.w3.org/1999/xlink" width="31px" height="17px" xmlns="http://www.w3.org/2000/svg">
  <g transform="matrix(1 0 0 1 -1003 -657 )">
    <path d="M 13.2880208333333 9.9443359375  C 13.3848958333333 9.8447265625  13.4333333333333 9.71744791666667  13.4333333333333 9.5625  L 13.4333333333333 7.4375  C 13.4333333333333 7.28255208333333  13.3848958333333 7.1552734375  13.2880208333333 7.0556640625  C 13.1911458333333 6.9560546875  13.0673611111111 6.90625  12.9166666666667 6.90625  L 9.81666666666667 6.90625  L 9.81666666666667 3.71875  C 9.81666666666667 3.56380208333333  9.76822916666667 3.4365234375  9.67135416666667 3.3369140625  C 9.57447916666667 3.2373046875  9.45069444444445 3.1875  9.3 3.1875  L 7.23333333333333 3.1875  C 7.08263888888889 3.1875  6.95885416666667 3.2373046875  6.86197916666667 3.3369140625  C 6.76510416666667 3.4365234375  6.71666666666667 3.56380208333333  6.71666666666667 3.71875  L 6.71666666666667 6.90625  L 3.61666666666667 6.90625  C 3.46597222222222 6.90625  3.3421875 6.9560546875  3.2453125 7.0556640625  C 3.1484375 7.1552734375  3.1 7.28255208333333  3.1 7.4375  L 3.1 9.5625  C 3.1 9.71744791666667  3.1484375 9.8447265625  3.2453125 9.9443359375  C 3.3421875 10.0439453125  3.46597222222222 10.09375  3.61666666666667 10.09375  L 6.71666666666667 10.09375  L 6.71666666666667 13.28125  C 6.71666666666667 13.4361979166667  6.76510416666667 13.5634765625  6.86197916666667 13.6630859375  C 6.95885416666667 13.7626953125  7.08263888888889 13.8125  7.23333333333333 13.8125  L 9.3 13.8125  C 9.45069444444445 13.8125  9.57447916666667 13.7626953125  9.67135416666667 13.6630859375  C 9.76822916666667 13.5634765625  9.81666666666667 13.4361979166667  9.81666666666667 13.28125  L 9.81666666666667 10.09375  L 12.9166666666667 10.09375  C 13.0673611111111 10.09375  13.1911458333333 10.0439453125  13.2880208333333 9.9443359375  Z M 22.1278645833333 12.12744140625  C 22.5315104166667 11.71240234375  22.7333333333333 11.2115885416667  22.7333333333333 10.625  C 22.7333333333333 10.0384114583333  22.5315104166667 9.53759765625  22.1278645833333 9.12255859375  C 21.72421875 8.70751953125  21.2371527777778 8.5  20.6666666666667 8.5  C 20.0961805555556 8.5  19.6091145833333 8.70751953125  19.20546875 9.12255859375  C 18.8018229166667 9.53759765625  18.6 10.0384114583333  18.6 10.625  C 18.6 11.2115885416667  18.8018229166667 11.71240234375  19.20546875 12.12744140625  C 19.6091145833333 12.54248046875  20.0961805555556 12.75  20.6666666666667 12.75  C 21.2371527777778 12.75  21.72421875 12.54248046875  22.1278645833333 12.12744140625  Z M 26.2611979166667 7.87744140625  C 26.66484375 7.46240234375  26.8666666666667 6.96158854166667  26.8666666666667 6.375  C 26.8666666666667 5.78841145833333  26.66484375 5.28759765625  26.2611979166667 4.87255859375  C 25.8575520833333 4.45751953125  25.3704861111111 4.25  24.8 4.25  C 24.2295138888889 4.25  23.7424479166667 4.45751953125  23.3388020833333 4.87255859375  C 22.93515625 5.28759765625  22.7333333333333 5.78841145833333  22.7333333333333 6.375  C 22.7333333333333 6.96158854166667  22.93515625 7.46240234375  23.3388020833333 7.87744140625  C 23.7424479166667 8.29248046875  24.2295138888889 8.5  24.8 8.5  C 25.3704861111111 8.5  25.8575520833333 8.29248046875  26.2611979166667 7.87744140625  Z M 28.578125 2.490234375  C 30.1927083333333 4.150390625  31 6.15364583333333  31 8.5  C 31 10.8463541666667  30.1927083333333 12.849609375  28.578125 14.509765625  C 26.9635416666667 16.169921875  25.0152777777778 17  22.7333333333333 17  C 20.6666666666667 17  18.8475694444444 16.2916666666667  17.2760416666667 14.875  L 13.7239583333333 14.875  C 12.1524305555556 16.2916666666667  10.3333333333333 17  8.26666666666667 17  C 5.98472222222222 17  4.03645833333333 16.169921875  2.421875 14.509765625  C 0.807291666666667 12.849609375  0 10.8463541666667  0 8.5  C 0 6.15364583333333  0.807291666666667 4.150390625  2.421875 2.490234375  C 4.03645833333333 0.830078125  5.98472222222222 0  8.26666666666667 0  L 22.7333333333333 0  C 25.0152777777778 0  26.9635416666667 0.830078125  28.578125 2.490234375  Z " fill-rule="nonzero" fill="#ffffff" stroke="none" fill-opacity="0.980392156862745" transform="matrix(1 0 0 1 1003 657 )" />
  </g>
</svg>