<?xml version="1.0" standalone="no"?><!DOCTYPE svg PUBLIC "-//W3C//DTD SVG 1.1//EN" "http://www.w3.org/Graphics/SVG/1.1/DTD/svg11.dtd"><svg t="1745396328120" class="icon" viewBox="0 0 1024 1024" version="1.1" xmlns="http://www.w3.org/2000/svg" p-id="4770" xmlns:xlink="http://www.w3.org/1999/xlink" width="128" height="128"><path d="M604.586667 286.762667l16.384 16.64-141.141334 140.970666a106.666667 106.666667 0 0 0-12.757333 212.949334l7.04 0.213333 6.997333-0.213333a106.666667 106.666667 0 0 0 99.413334-99.413334l0.256-7.04-0.213334-6.4 139.264-139.264c20.693333 21.888 32.725333 35.328 36.096 40.362667 30.421333 51.925333 19.669333 117.546667-25.642666 155.818667l-6.144 4.821333-70.954667 54.186667c-1.877333 0-1.877333 1.877333-1.877333 1.877333 1.877333 80.298667-28.032 155.050667-85.930667 212.949333a289.237333 289.237333 0 0 1-194.346667 85.674667l-13.013333 0.256h-5.632c-82.176-1.877333-156.885333-35.498667-211.072-95.274667-104.618667-112.085333-102.741333-293.290667 3.712-403.498666a297.642667 297.642667 0 0 1 206.293333-89.685334h12.288l1.877334-1.877333 54.186666-70.954667a120.746667 120.746667 0 0 1 89.642667-48.597333c35.498667-1.834667 69.12 11.221333 95.274667 35.498667zM836.266667 73.813333c13.056-13.098667 37.333333-13.098667 50.389333 0l63.573333 63.530667c13.056 13.056 13.056 37.333333 0 50.432l-52.352 52.309333a36.864 36.864 0 0 1-26.154666 11.178667h-44.8l-155.093334 155.050667-125.141333 125.184c0 5.589333 1.877333 11.221333 1.877333 18.688 0 41.088-33.621333 74.709333-74.752 74.709333a74.922667 74.922667 0 0 1-74.709333-74.709333c0-41.130667 33.621333-74.752 74.709333-74.752 5.632 0 13.098667 0 18.688 1.877333l280.234667-280.192V152.277333c0-9.386667 3.712-18.688 11.178667-26.154666z" fill="#ffffff" p-id="4771"></path></svg>