<?xml version="1.0" encoding="utf-8"?>
<svg version="1.1" xmlns:xlink="http://www.w3.org/1999/xlink" width="25px" height="25px" xmlns="http://www.w3.org/2000/svg">
  <g transform="matrix(1 0 0 1 -20 -18 )">
    <path d="M 20 18  L 45 18  L 45 43  L 20 43  L 20 18  " fill-rule="nonzero" fill="#cccccc" stroke="none" />
    <path d="M 22 20  L 43 20  L 43 41  L 22 41  L 22 20  " fill-rule="nonzero" fill="#ffffff" stroke="none" />
    <path d="M 34.875 25.5  C 33.825 25.5  33 24.675  33 23.625  C 33 22.575  33.825 21.75  34.875 21.75  C 35.925 21.75  36.75 22.575  36.75 23.625  C 36.75 24.675  35.925 25.5  34.875 25.5  " fill-rule="nonzero" fill="#cccccc" stroke="none" />
    <path d="M 23 41  L 23 30  L 28 25  L 35 29  L 39 28  L 43 29  L 43 41  L 23 41  " fill-rule="nonzero" fill="#169bd5" stroke="none" />
  </g>
</svg>