<?xml version="1.0" encoding="utf-8"?>
<svg version="1.1" xmlns:xlink="http://www.w3.org/1999/xlink" width="22px" height="22px" xmlns="http://www.w3.org/2000/svg">
  <g transform="matrix(1 0 0 1 -74 -31 )">
    <path d="M 5.478515625 1.47526041666667  C 7.16384548611111 0.49175347222222  9.00434027777778 0  11 0  C 12.9956597222222 0  14.8361545138889 0.49175347222222  16.521484375 1.47526041666667  C 18.2068142361111 2.45876736111111  19.5412326388889 3.79318576388889  20.5247395833333 5.478515625  C 21.5082465277778 7.16384548611111  22 9.00434027777778  22 11  C 22 12.9956597222222  21.5082465277778 14.8361545138889  20.5247395833333 16.521484375  C 19.5412326388889 18.2068142361111  18.2068142361111 19.5412326388889  16.521484375 20.5247395833333  C 14.8361545138889 21.5082465277778  12.9956597222222 22  11 22  C 9.00434027777778 22  7.16384548611111 21.5082465277778  5.478515625 20.5247395833333  C 3.79318576388889 19.5412326388889  2.45876736111111 18.2068142361111  1.47526041666667 16.521484375  C 0.491753472222222 14.8361545138889  0 12.9956597222222  0 11  C 0 9.00434027777778  0.491753472222222 7.16384548611111  1.47526041666667 5.478515625  C 2.45876736111111 3.79318576388889  3.79318576388889 2.45876736111111  5.478515625 1.47526041666667  Z M 12.7044270833333 18.197265625  C 12.7903645833333 18.1065538194444  12.8333333333333 17.9943576388889  12.8333333333333 17.8606770833333  L 12.8333333333333 15.1393229166667  C 12.8333333333333 15.0056423611111  12.7903645833333 14.8934461805556  12.7044270833333 14.802734375  C 12.6184895833333 14.7120225694444  12.5134548611111 14.6666666666667  12.3893229166667 14.6666666666667  L 9.63932291666667 14.6666666666667  C 9.51519097222222 14.6666666666667  9.40538194444445 14.7144097222222  9.30989583333333 14.8098958333333  C 9.21440972222222 14.9053819444444  9.16666666666667 15.0151909722222  9.16666666666667 15.1393229166667  L 9.16666666666667 17.8606770833333  C 9.16666666666667 17.9848090277778  9.21440972222222 18.0946180555556  9.30989583333333 18.1901041666667  C 9.40538194444445 18.2855902777778  9.51519097222222 18.3333333333333  9.63932291666667 18.3333333333333  L 12.3893229166667 18.3333333333333  C 12.5134548611111 18.3333333333333  12.6184895833333 18.2879774305556  12.7044270833333 18.197265625  Z M 12.654296875 13.1842447916667  C 12.7450086805556 13.1126302083333  12.7951388888889 13.0290798611111  12.8046875 12.93359375  L 13.0625 4.0390625  C 13.0625 3.92447916666667  13.0147569444444 3.83854166666667  12.9192708333333 3.78125  C 12.8237847222222 3.70486111111111  12.7092013888889 3.66666666666667  12.5755208333333 3.66666666666667  L 9.42447916666667 3.66666666666667  C 9.29079861111111 3.66666666666667  9.17621527777778 3.70486111111111  9.08072916666667 3.78125  C 8.98524305555556 3.83854166666667  8.9375 3.92447916666667  8.9375 4.0390625  L 9.18098958333333 12.93359375  C 9.18098958333333 13.0290798611111  9.22873263888889 13.1126302083333  9.32421875 13.1842447916667  C 9.41970486111111 13.255859375  9.53428819444445 13.2916666666667  9.66796875 13.2916666666667  L 12.3177083333333 13.2916666666667  C 12.4513888888889 13.2916666666667  12.5635850694444 13.255859375  12.654296875 13.1842447916667  Z " fill-rule="nonzero" fill="#f07c8a" stroke="none" transform="matrix(1 0 0 1 74 31 )" />
  </g>
</svg>