<?xml version="1.0" encoding="utf-8"?>
<svg version="1.1" xmlns:xlink="http://www.w3.org/1999/xlink" width="14px" height="14px" xmlns="http://www.w3.org/2000/svg">
  <g transform="matrix(1 0 0 1 0 -11 )">
    <path d="M 7 12  C 10.36 12  13 14.64  13 18  C 13 21.36  10.36 24  7 24  C 3.64 24  1 21.36  1 18  C 1 14.64  3.64 12  7 12  Z " fill-rule="nonzero" fill="#ffffff" stroke="none" />
    <path d="M 7 12  C 10.36 12  13 14.64  13 18  C 13 21.36  10.36 24  7 24  C 3.64 24  1 21.36  1 18  C 1 14.64  3.64 12  7 12  Z " stroke-width="2" stroke="#aaaaaa" fill="none" />
  </g>
</svg>